<?xml version="1.0" encoding="utf-8"?>
<!-- Generator: Adobe Illustrator 27.3.1, SVG Export Plug-In . SVG Version: 6.00 Build 0)  -->
<svg version="1.1" id="Calque_1" xmlns="http://www.w3.org/2000/svg" xmlns:xlink="http://www.w3.org/1999/xlink" x="0px" y="0px"
	 viewBox="0 0 2560 1280" style="enable-background:new 0 0 2560 1280;" xml:space="preserve">
<style type="text/css">
	.st0{fill:#D5EDF7;}
	.st1{fill:#D2EAAC;}
	.st2{fill:#80BC80;}
	.st3{fill:#95A1A1;}
	.st4{fill:#B5C2C2;}
	.st5{fill:#4B6480;}
	.st6{fill:#869191;}
	.st7{fill:#C4B592;}
	.st8{fill:#D7C9A9;}
	.st9{fill:#B4A582;}
	.st10{fill:#D26F49;}
	.st11{fill:#B66141;}
	.st12{fill:#E07850;}
	.st13{fill:#516D8C;}
	.st14{fill:#40556D;}
	.st15{fill:#A4AFAF;}
	.st16{fill:#5B6666;}
	.st17{fill:#7E8787;}
	.st18{fill:#767E7E;}
</style>
<g id="Montagne" transform="matrix( 1, 0, 0, 1, 313.95,1045.25) ">
	<g>
		<g id="Layer0_78_FILL">
			<path class="st0" d="M2416.29-482.06l-58.26,153.15l-196.8-517.75c-12.59-28.52-24.02-28.52-34.29,0l-175.41,461.33
				l-59.86-157.31c-9.76-22.46-18.38-22.46-25.85,0l-64.95,170.94l-89.83-236.25c-8.64-20.95-16.7-20.95-24.18,0l-67.53,177.76
				L1442.1-896.25c-10.08-27.26-20.21-27.26-30.38,0l-152.9,414.2l-68.44-180.03c-7.99-21.83-15.98-21.83-23.97,0l-106.07,279.03
				l-37.7-99.01v198.01h1393.66V-482.06z"/>
		</g>
	</g>
</g>
<g id="herbe_premier_plan" transform="matrix( 1, 0, 0, 1, 313.95,1045.25) ">
	<g>
		<g id="Layer0_82_FILL_00000049914531448842773110000002094001504960362914_">
			<path class="st1" d="M2246.05-118.74v-345.2c-29.06,25.32-57.62,53.72-85.7,85.2c-49.11,55.13-99.33,59.47-150.66,13.02
				c-47.58-43.2-95.66-82.64-144.26-118.31c-49.88-36.51-100.4-42.42-151.56-17.73c-51.07,24.79-99.89,64.28-146.44,118.47
				c-47.06,54.5-96.86,82.22-149.38,83.16c-52.48,1.05-103.26-20.29-152.33-64.02c-47.58-42.68-96.11-78.3-145.61-106.86
				c-51.67-29.6-103.02-27.25-154.06,7.06v345.2H2246.05z"/>
		</g>
	</g>
</g>
<g id="herbe_premier_plan_00000016791591807454196100000002006333621401312657_" transform="matrix( 1, 0, 0, 1, 314.2,1044.8) ">
	<g>
		<g id="Layer0_75_FILL">
			<path class="st2" d="M-314.2,3.38V235.2h2560V3.38H-314.2z"/>
		</g>
	</g>
</g>
<g id="herbe_deuxième_plan" transform="matrix( 1, 0, 0, 1, 313.95,1045.25) ">
	<g>
		<g id="Layer0_82_FILL_00000053532832234045071660000004290101410213087108_">
			<path class="st1" d="M966.05-118.74v-345.2c-58.12,25.32-115.25,53.72-171.4,85.2c-98.22,55.13-198.67,59.47-301.33,13.02
				C398.17-408.92,302-448.36,204.8-484.03C105.04-520.54,4-526.45-98.32-501.76c-102.15,24.79-199.78,64.28-292.88,118.47
				c-94.13,54.5-193.72,82.22-298.77,83.16c-104.97,1.05-206.52-20.29-304.66-64.02c-95.15-42.68-192.22-78.3-291.21-106.86
				c-103.34-29.6-206.05-27.25-308.11,7.06v345.2H966.05z"/>
		</g>
	</g>
</g>
<g id="herbe_deuxième_plan_00000007395537508237299640000011875944578781684111_" transform="matrix( 1, 0, 0, 1, 313.95,1045.25) ">
	<g>
		<g id="Layer0_82_FILL">
			<path class="st2" d="M2246.05,32.71v-292.47c-58.12,21.45-115.25,45.51-171.4,72.19c-98.22,46.71-198.67,50.38-301.33,11.03
				c-95.15-36.6-191.33-70.01-288.53-100.24c-99.76-30.93-200.8-35.94-303.12-15.02c-102.15,21-199.78,54.46-292.88,100.37
				c-94.13,46.17-193.72,69.66-298.77,70.46c-104.97,0.89-206.52-17.19-304.66-54.24c-95.15-36.16-192.22-66.34-291.21-90.53
				c-103.34-25.08-206.05-23.09-308.11,5.98V32.71H2246.05z"/>
		</g>
	</g>
</g>
<g transform="matrix( 1, 0, 0, 1, 313.95,1045.25) ">
	<g>
		<g id="Layer0_72_FILL">
			<path class="st3" d="M-174.9-480.96l-38.4-38.4l-38.4,38.4v115.05h76.8V-480.96 M-237.05-456.91v-26.05h16.55v26.05H-237.05
				 M-189.55-482.96v26.05h-16.5v-26.05H-189.55 M-206.05-438.91h16.5v26.05h-16.5V-438.91 M-237.05-438.91h16.55v26.05h-16.55
				V-438.91z"/>
			<path class="st4" d="M-220.5-438.91h-16.55v26.05h16.55V-438.91 M-189.55-438.91h-16.5v26.05h16.5V-438.91 M-189.55-456.91
				v-26.05h-16.5v26.05H-189.55 M-237.05-482.96v26.05h16.55v-26.05H-237.05z"/>
			<path class="st5" d="M-257.6-482.31l5.9-5.9l38.4-38.45l38.4,38.45l5.9,5.9l6.15-6.15l-50.45-50.45l-50.45,50.45L-257.6-482.31z"
				/>
			<path class="st6" d="M-251.7-488.21v7.25l38.4-38.4l38.4,38.4v-7.25l-38.4-38.45L-251.7-488.21z"/>
		</g>
	</g>
</g>
<g transform="matrix( 1, 0, 0, 1, 313.95,1045.25) ">
	<g>
		<g id="Layer0_71_FILL">
			<path class="st7" d="M-21.79-324.61v-56.35l-38.45-38.4l-38.4,38.4v56.35H-21.79 M-67.49-387.26v26.4h-16.6v-26.4H-67.49
				 M-36.39-387.26v26.4h-16.55v-26.4H-36.39z"/>
			<path class="st8" d="M-36.39-360.86v-26.4h-16.55v26.4H-36.39 M-67.49-360.86v-26.4h-16.6v26.4H-67.49z"/>
			<path class="st9" d="M-21.79-380.96v-7.3l-38.45-38.4l-38.4,38.4v7.3l38.4-38.4L-21.79-380.96z"/>
			<path class="st10" d="M-15.89-382.31l6.1-6.15l-50.45-50.45l-50.45,50.45l6.15,6.15l5.9-5.95l38.4-38.4l38.45,38.4L-15.89-382.31
				z"/>
		</g>
	</g>
</g>
<g transform="matrix( 1, 0, 0, 1, 313.95,1045.25) ">
	<g>
		<g id="Layer0_69_FILL">
			<path class="st7" d="M83.86-394.56v-30.89L68.73-446.5L53.6-425.45v30.89H83.86 M78.12-428.9v14.47h-6.54v-14.47H78.12
				 M65.87-428.9v14.47h-6.54v-14.47H65.87z"/>
			<path class="st8" d="M65.87-414.43v-14.47h-6.54v14.47H65.87 M78.12-414.43v-14.47h-6.54v14.47H78.12z"/>
			<path class="st9" d="M83.86-425.45v30.89h36.72v-31.63h-34.4L68.73-450.5L53.6-429.45v4l15.13-21.05L83.86-425.45z"/>
			<path class="st10" d="M86.18-426.19l2.42-3.37l-19.88-27.65l-19.9,27.65l2.44,3.37l2.32-3.26l15.13-21.05L86.18-426.19z"/>
			<path class="st11" d="M88.61-429.56l-2.42,3.37h34.4h2.6v-3.37H88.61z"/>
			<path class="st12" d="M104.11-457.21H68.73l19.88,27.65h34.57v-1.12L104.11-457.21z"/>
		</g>
	</g>
</g>
<g transform="matrix( 1, 0, 0, 1, 313.95,1045.25) ">
	<g>
		<g id="Layer0_70_FILL">
			<path class="st13" d="M100.68-520.24l14.68,16.58h21.09l-14.69-16.58H100.68z"/>
			<path class="st14" d="M115.36-503.66l-1.77,2.02h20.06h2.81v-2.02H115.36z"/>
			<path class="st3" d="M111.87-501.2l-11.19-12.62L89.51-501.2v37.81h22.36V-501.2 M93.79-493.29v-8.56h4.8v8.56H93.79
				 M102.79-501.85h4.8v8.56h-4.8V-501.85 M102.79-487.38h4.8v8.56h-4.8V-487.38 M93.79-487.38h4.8v8.56h-4.8V-487.38z"/>
			<path class="st4" d="M98.59-487.38h-4.8v8.56h4.8V-487.38 M107.59-487.38h-4.8v8.56h4.8V-487.38 M107.59-501.85h-4.8v8.56h4.8
				V-501.85 M93.79-501.85v8.56h4.8v-8.56H93.79z"/>
			<path class="st6" d="M89.51-503.58v2.38l11.17-12.62l11.19,12.62v37.81h21.78v-38.25h-20.06l-12.9-14.57L89.51-503.58z"/>
			<path class="st5" d="M86-503.66l1.79,2.02l1.72-1.94l11.17-12.64l12.9,14.57l1.77-2.02l-14.68-16.58L86-503.66z"/>
		</g>
	</g>
</g>
<g transform="matrix( 1, 0, 0, 1, 313.95,1045.25) ">
	<g>
		<g id="Layer0_61_FILL">
			<path class="st15" d="M20.14-515.91l-1.25,24.1h43.5l-5-21.15L20.14-515.91 M-62.46-491.81l-1.25-24.55l-37.25,3.4l-2.15,21.15
				H-62.46z"/>
			<path class="st16" d="M-47.21-544.51l2.85,52.7h44.4l3.75-56.4L-47.21-544.51z"/>
			<path class="st17" d="M-58.66-559.46v67.65h14.3l-2.85-52.7l51-3.7l-3.75,56.4h13.8v-69.8L-58.66-559.46 M-95.01-590.56l2.1,15.7
				l13.05-1.8l-2.2-15.65c-0.2-1.8-1.03-3.25-2.5-4.35c-1.43-1.13-3.05-1.57-4.85-1.3c-1.77,0.23-3.2,1.08-4.3,2.55
				C-94.81-593.98-95.24-592.36-95.01-590.56 M-6.41-578.91l-3.35-14.5h-23.6l-5.5,15.3l-6.75,0.1l-4.65-15.4h-8.4v27l72.5-3.9
				v-23.1H2.04l-1.8,14.35L-6.41-578.91 M51.49-595.61c-1.37-1.8-3.15-2.83-5.35-3.1c-2.2-0.3-4.18,0.25-5.95,1.65
				c-1.8,1.37-2.85,3.15-3.15,5.35l-2.45,19.35l16.05,2.05l2.45-19.35C53.39-591.86,52.86-593.85,51.49-595.61z"/>
			<path class="st10" d="M-100.81-673.51l-16.1,60.6c13.3-9.8,28.95-13.35,46.95-10.65L-100.81-673.51 M73.34-612.91l-16.1-60.6
				l-30.85,49.95C44.39-626.26,60.04-622.71,73.34-612.91z"/>
			<path class="st18" d="M-58.66-593.41h-9l3.95,77.05l1.25,24.55h3.8v-67.65v-6.95V-593.41 M13.84-593.41v23.1v8.7v69.8h5.05
				l1.25-24.1l3.95-77.5H13.84z"/>
			<path class="st3" d="M-123.56-607.36l14.35,18.55l8.25,75.85l37.25-3.4l-3.95-77.05l-0.25-5.1l8.8-22.75
				c-0.73-0.2-1.48-0.4-2.25-0.6c-2.93-0.73-5.8-1.3-8.6-1.7c-18-2.7-33.65,0.85-46.95,10.65
				C-119.21-611.25-121.43-609.4-123.56-607.36 M-92.91-574.86l-2.1-15.7c-0.23-1.8,0.2-3.42,1.3-4.85c1.1-1.47,2.53-2.32,4.3-2.55
				c1.8-0.27,3.42,0.17,4.85,1.3c1.47,1.1,2.3,2.55,2.5,4.35l2.2,15.65L-92.91-574.86 M13.84-561.61v-8.7l-72.5,3.9v6.95
				L13.84-561.61 M21.34-622.66c-1.9,0.4-3.83,0.87-5.8,1.4l8.8,22.75l-0.25,5.1l-3.95,77.5l37.25,2.95l8.25-75.85l14.35-18.55
				c-2.13-2.03-4.35-3.88-6.65-5.55c-13.3-9.8-28.95-13.35-46.95-10.65C24.76-623.33,23.07-623.03,21.34-622.66 M46.14-598.71
				c2.2,0.27,3.98,1.3,5.35,3.1c1.37,1.77,1.9,3.75,1.6,5.95l-2.45,19.35l-16.05-2.05l2.45-19.35c0.3-2.2,1.35-3.98,3.15-5.35
				C41.96-598.46,43.94-599.01,46.14-598.71z"/>
		</g>
	</g>
</g>
</svg>
