<?xml version="1.0" encoding="utf-8"?>
<!-- Generator: Adobe Illustrator 27.3.1, SVG Export Plug-In . SVG Version: 6.00 Build 0)  -->
<svg version="1.1" id="Calque_1" xmlns="http://www.w3.org/2000/svg" xmlns:xlink="http://www.w3.org/1999/xlink" x="0px" y="0px"
	 viewBox="0 0 2560 1280" style="enable-background:new 0 0 2560 1280;" xml:space="preserve">
<style type="text/css">
	.st0{fill:#E6F4FA;}
	.st1{fill:#AA9A66;}
	.st2{fill:#ABBC8A;}
	.st3{fill:#80BC80;}
	.st4{fill:#95A1A1;}
	.st5{fill:#B5C2C2;}
	.st6{fill:#4B6480;}
	.st7{fill:#869191;}
	.st8{fill:#C4B592;}
	.st9{fill:#D7C9A9;}
	.st10{fill:#B4A582;}
	.st11{fill:#D26F49;}
	.st12{fill:#B66141;}
	.st13{fill:#E07850;}
	.st14{fill:#516D8C;}
	.st15{fill:#40556D;}
	.st16{fill:#A4AFAF;}
	.st17{fill:#5B6666;}
	.st18{fill:#7E8787;}
	.st19{fill:#767E7E;}
	.st20{fill:#6D503D;}
	.st21{fill:#795B48;}
	.st22{fill:#448C5E;}
	.st23{fill:#3E7B54;}
</style>
<g id="Nuages" transform="matrix( 1, 0, 0, 1, 313.95,1045.25) ">
	<g>
		<g id="Layer0_77_FILL">
			<path class="st0" d="M2247.5-441.7c-36.6,0.5-68,8.1-94.1,22.8c-7.6-0.8-15.5-1.2-23.7-1.2c-25.6,0-48.2,4-68,11.9
				c-1.4-0.8-2.7-1.6-4.1-2.4c-26.9-15.6-59.5-23.4-97.7-23.4c-38.3,0-71,7.8-98.1,23.4c-13.2,7.7-23.1,16.2-29.7,25.5
				c-16.6-4.9-35-7.4-55.1-7.4c-33.8,0-62.6,6.9-86.4,20.8c-1,0.6-1.9,1.1-2.7,1.6c-8.4-1-17.1-1.5-26.3-1.5
				c-25,0-47.4,3.8-66.9,11.4c-4.2-5-9.7-9.6-16.7-13.9c5.6-8.2,8.3-17,8.3-26.5c0-15.5-7.6-29.3-22.7-41.2c-3.9-3-8.3-5.9-13.1-8.7
				c-23.7-13.8-52.4-20.7-86.3-20.7c-33.8,0-62.6,6.9-86.6,20.7c-4.1,2.4-7.8,4.9-11.2,7.4c-13.4-2.4-27.7-3.6-42.8-3.6
				c-17.5,0-33.9,1.6-49.2,4.9c-17.9,3.9-34.1,10.1-48.7,18.5c-26.1,15-39.5,33.1-40.3,54.3c-19.4,3.2-36.8,9.2-52.1,18.1
				c-2.5,1.4-4.7,2.8-6.8,4.2c-3.5-11.1-12.6-20.8-27.2-29.3c-19.1-11.1-42.2-16.6-69.4-16.6s-50.4,5.5-69.6,16.6
				c-8.4,4.9-14.9,10.2-19.6,15.9c-4.7-4.1-10.3-8.1-16.8-11.8c-23.7-13.8-52.4-20.8-86.3-20.8c-33.9,0-62.7,6.9-86.6,20.8
				c-3.2,1.8-6.2,3.8-9,5.7c-5.8-0.5-11.7-0.7-17.7-0.7c-33.9,0-62.7,6.9-86.6,20.7c-3.6,2-6.8,4.2-9.7,6.4
				c-5.9-5.5-13.1-10.7-21.5-15.5c-18.8-10.9-40.4-18-64.8-21.4c-1.5-17.9-13.4-33.3-35.8-46.2c-16.8-9.8-36-16.1-57.8-19
				c-9.1-1.2-18.6-1.8-28.5-1.8c-9.2,0-18,0.5-26.4,1.5c-4.1-10-12.9-18.9-26.3-26.7c-19.1-11.1-42.2-16.6-69.4-16.6
				c-14.4,0-27.6,1.6-39.6,4.7c-4.7-4.1-10.2-8-16.5-11.6c-23.7-13.8-52.4-20.7-86.3-20.7c-33.8,0-62.6,6.9-86.6,20.7
				C44.9-478.4,33-461.7,33-442.2c0,0.2,0,0.4,0,0.5c0.1,4.8,0.9,9.4,2.4,13.9c-23.6,1.1-43.9,6.5-61,16.4c-3.1,1.8-5.9,3.7-8.5,5.7
				c-0.9-0.5-1.7-1-2.4-1.5c-23.8-13.8-52.6-20.8-86.4-20.8c-33.8,0-62.6,6.9-86.4,20.8c-1.9,1.1-3.6,2.1-5.3,3.2
				c-5.5-0.4-11.1-0.5-16.9-0.5c-5.6,0-11.2,0.2-16.5,0.5c-4.6-8.5-12.8-16.1-24.5-22.9c-12.8-7.5-27.5-12.4-44.1-14.9
				c-0.1,0-0.2,0-0.3,0v242.5h2564.4V-441.7z"/>
		</g>
	</g>
</g>
<g id="Montagne" transform="matrix( 1, 0, 0, 1, 313.95,1045.25) ">
	<g>
		<g id="Layer0_78_FILL">
			<path class="st1" d="M2416.3-341.8L2358-139.3l-196.8-684.8c-12.6-37.7-24-37.7-34.3,0l-175.4,610.2l-59.9-208.1
				c-9.8-29.7-18.4-29.7-25.8,0l-64.9,226.1L1711-508.3c-8.6-27.7-16.7-27.7-24.2,0l-67.5,235.1l-177.2-616.4
				c-10.1-36.1-20.2-36.1-30.4,0l-152.9,547.8l-68.4-238.1c-8-28.9-16-28.9-24,0l-106.1,369.1l-37.7-131v261.9h1393.7L2416.3-341.8
				L2416.3-341.8z"/>
		</g>
	</g>
</g>
<g id="herbe_premier_plan" transform="matrix( 1, 0, 0, 1, 313.95,1045.25) ">
	<g>
		<g id="Layer0_82_FILL_00000049914531448842773110000002094001504960362914_">
			<path class="st2" d="M2832.7,2.9v-385.7c-42.4,28.3-84,60-125,95.2c-71.6,61.6-144.9,66.4-219.7,14.5
				c-69.4-48.3-139.5-92.3-210.4-132.2c-72.7-40.8-146.4-47.4-221-19.8c-74.5,27.7-145.7,71.8-213.6,132.4
				c-68.6,60.9-141.3,91.9-217.8,92.9c-76.5,1.2-150.6-22.7-222.1-71.5c-69.4-47.7-140.2-87.5-212.3-119.4
				c-75.4-33.1-150.2-30.4-224.7,7.9V2.9L2832.7,2.9L2832.7,2.9z"/>
		</g>
	</g>
</g>
<g id="herbe_premier_plan_00000016791591807454196100000002006333621401312657_" transform="matrix( 1, 0, 0, 1, 314.2,1044.8) ">
	<g>
		<g id="Layer0_75_FILL">
			<path class="st3" d="M-314.2,3.4v231.8h2560V3.4H-314.2z"/>
		</g>
	</g>
</g>
<g id="herbe_deuxième_plan" transform="matrix( 1, 0, 0, 1, 313.95,1045.25) ">
	<g>
		<g id="Layer0_82_FILL_00000053532832234045071660000004290101410213087108_">
			<path class="st2" d="M966,2.9v-385.7c-58.1,28.3-115.2,60-171.4,95.2C696.4-226,596-221.1,493.3-273
				c-95.2-48.3-191.3-92.3-288.5-132.2C105-446,4-452.6-98.3-425c-102.2,27.7-199.8,71.8-292.9,132.4
				c-94.1,60.9-193.7,91.9-298.8,92.9c-105,1.2-206.5-22.7-304.7-71.5c-95.1-47.7-192.2-87.5-291.2-119.4
				c-103.3-33.1-206.1-30.4-308.1,7.9V2.9L966,2.9L966,2.9z"/>
		</g>
	</g>
</g>
<g id="herbe_deuxième_plan_00000007395537508237299640000011875944578781684111_" transform="matrix( 1, 0, 0, 1, 313.95,1045.25) ">
	<g>
		<g id="Layer0_82_FILL">
			<path class="st3" d="M2246.1,118.8V-72.1c-58.1,14-115.2,29.7-171.4,47.1c-98.2,30.5-198.7,32.9-301.3,7.2
				c-95.2-23.9-191.3-45.7-288.5-65.4c-99.8-20.2-200.8-23.5-303.1-9.8c-102.2,13.7-199.8,35.5-292.9,65.5
				C794.7,2.7,695.1,18,590,18.5c-105,0.6-206.5-11.2-304.7-35.4C190.2-40.5,93.1-60.2-5.8-76C-109.2-92.3-211.9-91-314-72.1v190.9
				H2246.1z"/>
		</g>
	</g>
</g>
<g transform="matrix( 1, 0, 0, 1, 313.95,1045.25) ">
	<g>
		<g id="Layer0_72_FILL">
			<path class="st4" d="M-133.7-342.8l-38.4-38.4l-38.4,38.4v115.1h76.8L-133.7-342.8 M-195.8-318.7v-26h16.6v26H-195.8
				 M-148.3-344.8v26h-16.5v-26H-148.3 M-164.8-300.7h16.5v26h-16.5V-300.7 M-195.8-300.7h16.6v26h-16.6V-300.7z"/>
			<path class="st5" d="M-179.3-300.7h-16.6v26h16.6V-300.7 M-148.3-300.7h-16.5v26h16.5V-300.7 M-148.3-318.7v-26h-16.5v26H-148.3
				 M-195.8-344.8v26h16.6v-26H-195.8z"/>
			<path class="st6" d="M-216.4-344.1l5.9-5.9l38.4-38.4l38.4,38.5l5.9,5.9l6.1-6.1l-50.4-50.5l-50.4,50.5L-216.4-344.1z"/>
			<path class="st7" d="M-210.5-350v7.2l38.4-38.4l38.4,38.4v-7.2l-38.4-38.4L-210.5-350z"/>
		</g>
	</g>
</g>
<g transform="matrix( 1, 0, 0, 1, 313.95,1045.25) ">
	<g>
		<g id="Layer0_71_FILL">
			<path class="st8" d="M26.7-199.2v-56.4L-11.7-294l-38.4,38.4v56.4H26.7 M-19-261.9v26.4h-16.6v-26.4H-19 M12.1-261.9v26.4H-4.4
				v-26.4H12.1z"/>
			<path class="st9" d="M12.1-235.5v-26.4H-4.4v26.4H12.1 M-19-235.5v-26.4h-16.6v26.4H-19z"/>
			<path class="st10" d="M26.7-255.6v-7.3l-38.5-38.4l-38.4,38.4v7.3l38.4-38.4L26.7-255.6z"/>
			<path class="st11" d="M32.6-256.9l6.1-6.2l-50.5-50.5l-50.5,50.5l6.2,6.2l5.9-6l38.4-38.4l38.5,38.4L32.6-256.9z"/>
		</g>
	</g>
</g>
<g transform="matrix( 1, 0, 0, 1, 313.95,1045.25) ">
	<g>
		<g id="Layer0_69_FILL">
			<path class="st8" d="M125.1-256.4v-30.9l-15.1-21l-15.1,21v30.9H125.1 M119.4-290.7v14.5h-6.5v-14.5H119.4 M107.1-290.7v14.5
				h-6.5v-14.5H107.1z"/>
			<path class="st9" d="M107.1-276.2v-14.5h-6.5v14.5H107.1 M119.4-276.2v-14.5h-6.5v14.5H119.4z"/>
			<path class="st10" d="M125.1-287.2v30.9h36.7V-288h-34.4L110-312.3l-15.1,21v4l15.1-21L125.1-287.2z"/>
			<path class="st11" d="M127.4-288l2.4-3.4L110-319l-19.9,27.6l2.4,3.4l2.3-3.3l15.1-21L127.4-288z"/>
			<path class="st12" d="M129.8-291.4l-2.4,3.4h34.4h2.6v-3.4H129.8z"/>
			<path class="st13" d="M145.3-319H110l19.9,27.6h34.6v-1.1L145.3-319z"/>
		</g>
	</g>
</g>
<g transform="matrix( 1, 0, 0, 1, 313.95,1045.25) ">
	<g>
		<g id="Layer0_70_FILL">
			<path class="st14" d="M141.9-382l14.7,16.6h21.1L163-382H141.9z"/>
			<path class="st15" d="M156.6-365.5l-1.8,2h20.1h2.8v-2H156.6z"/>
			<path class="st4" d="M153.1-363l-11.2-12.6L130.7-363v37.8h22.4V-363 M135-355.1v-8.6h4.8v8.6H135 M144-363.6h4.8v8.6H144V-363.6
				 M144-349.2h4.8v8.6H144V-349.2 M135-349.2h4.8v8.6H135V-349.2z"/>
			<path class="st5" d="M139.8-349.2H135v8.6h4.8V-349.2 M148.8-349.2H144v8.6h4.8V-349.2 M148.8-363.6H144v8.6h4.8V-363.6
				 M135-363.6v8.6h4.8v-8.6H135z"/>
			<path class="st7" d="M130.7-365.4v2.4l11.2-12.6l11.2,12.6v37.8h21.8v-38.2h-20.1L141.9-378L130.7-365.4z"/>
			<path class="st6" d="M127.2-365.5l1.8,2l1.7-1.9l11.2-12.6l12.9,14.6l1.8-2L141.9-382L127.2-365.5z"/>
		</g>
	</g>
</g>
<g transform="matrix( 1, 0, 0, 1, 313.95,1045.25) ">
	<g>
		<g id="Layer0_61_FILL">
			<path class="st16" d="M61.4-377.7l-1.2,24.1h43.5l-5-21.1L61.4-377.7 M-21.2-353.6l-1.2-24.5l-37.2,3.4l-2.2,21.1L-21.2-353.6
				L-21.2-353.6z"/>
			<path class="st17" d="M-6-406.3l2.8,52.7h44.4L45-410L-6-406.3z"/>
			<path class="st18" d="M-17.4-421.3v67.6h14.3L-6-406.3l51-3.7l-3.8,56.4h13.8v-69.8L-17.4-421.3 M-53.8-452.4l2.1,15.7l13.1-1.8
				l-2.2-15.7c-0.2-1.8-1-3.2-2.5-4.3c-1.4-1.1-3.1-1.6-4.8-1.3c-1.8,0.2-3.2,1.1-4.3,2.5C-53.6-455.8-54-454.2-53.8-452.4
				 M34.8-440.7l-3.4-14.5H7.9l-5.5,15.3l-6.8,0.1L-9-455.2h-8.4v27l72.5-3.9v-23.1H43.3l-1.8,14.3L34.8-440.7 M92.7-457.4
				c-1.4-1.8-3.2-2.8-5.3-3.1c-2.2-0.3-4.2,0.2-6,1.7c-1.8,1.4-2.8,3.2-3.2,5.3l-2.4,19.3l16,2l2.5-19.3
				C94.6-453.7,94.1-455.6,92.7-457.4z"/>
			<path class="st11" d="M-59.6-535.3l-16.1,60.6c13.3-9.8,29-13.3,47-10.7L-59.6-535.3 M114.6-474.7l-16.1-60.6l-30.8,50
				C85.6-488.1,101.3-484.5,114.6-474.7z"/>
			<path class="st19" d="M-17.4-455.2h-9l4,77l1.2,24.5h3.8v-67.7v-7L-17.4-455.2 M55.1-455.2v23.1v8.7v69.8h5l1.2-24.1l4-77.5H55.1
				z"/>
			<path class="st4" d="M-82.3-469.2l14.3,18.5l8.2,75.8l37.2-3.4l-3.9-77l-0.2-5.1l8.8-22.8c-0.7-0.2-1.5-0.4-2.2-0.6
				c-2.9-0.7-5.8-1.3-8.6-1.7c-18-2.7-33.7,0.8-47,10.7C-78-473-80.2-471.2-82.3-469.2 M-51.7-436.7l-2.1-15.7
				c-0.2-1.8,0.2-3.4,1.3-4.8c1.1-1.5,2.5-2.3,4.3-2.5c1.8-0.3,3.4,0.2,4.8,1.3c1.5,1.1,2.3,2.5,2.5,4.3l2.2,15.7L-51.7-436.7
				 M55.1-423.4v-8.7l-72.5,3.9v7L55.1-423.4 M62.6-484.5c-1.9,0.4-3.8,0.9-5.8,1.4l8.8,22.8l-0.2,5.1l-4,77.5l37.2,3l8.2-75.8
				l14.3-18.5c-2.1-2-4.3-3.9-6.7-5.5c-13.3-9.8-28.9-13.3-46.9-10.7C66-485.1,64.3-484.8,62.6-484.5 M87.4-460.5
				c2.2,0.3,4,1.3,5.3,3.1c1.4,1.8,1.9,3.8,1.6,6l-2.4,19.3l-16.1-2l2.5-19.3c0.3-2.2,1.3-4,3.2-5.3
				C83.2-460.3,85.2-460.8,87.4-460.5z"/>
		</g>
	</g>
</g>
<g transform="matrix( 1, 0, 0, 1, 313.95,1045.25) ">
	<g>
		<g id="Layer0_4_FILL">
			<path class="st20" d="M-268.6-56.7l-1.1,7.7l36.4,3.5l-4-14.8L-268.6-56.7z"/>
			<path class="st21" d="M-227.1-22.8l-6.2-22.7l-36.4-3.5l-3.9,26.2H-227.1z"/>
			<path class="st22" d="M-205-63.9l-22.8-53l-61.9,13.1l-11.4,50.8l32.5-3.7l31.2-3.5L-205-63.9 M-298.9-118.5l12.7-0.8l56-3.4
				l13.5-0.8L-231-175l-48.3-11.4L-298.9-118.5 M-234.6-187.9l11.1,1.7l-44.2-96.1l-19,86.6l9.6,1.4L-234.6-187.9z"/>
			<path class="st23" d="M-286.2-119.3l-3.5,15.4l61.9-13.1l-2.4-5.8L-286.2-119.3 M-231-175l-3.6-12.9l-42.5-6.4l-2.2,7.9L-231-175
				z"/>
		</g>
	</g>
</g>
<g transform="matrix( 1, 0, 0, 1, 313.95,1045.25) ">
	<g>
		<g id="Layer0_4_FILL_00000084504685710830141260000000572834336641585853_">
			<path class="st20" d="M2127.9,50.3l-1.1,7.7l36.4,3.5l-4-14.8L2127.9,50.3z"/>
			<path class="st21" d="M2169.3,84.2l-6.2-22.7l-36.4-3.5l-3.9,26.2H2169.3z"/>
			<path class="st22" d="M2191.4,43.1l-22.8-53l-61.9,13.1L2095.3,54l32.6-3.6l31.2-3.6L2191.4,43.1 M2097.6-11.5l12.7-0.8l56-3.4
				l13.5-0.8l-14.3-51.5l-48.3-11.3L2097.6-11.5 M2161.9-80.8l11.1,1.7l-44.2-96.1l-19,86.6l9.6,1.4L2161.9-80.8z"/>
			<path class="st23" d="M2110.3-12.2l-3.5,15.4l61.9-13.1l-2.4-5.8L2110.3-12.2 M2165.4-67.9l-3.6-12.9l-42.5-6.4l-2.2,8
				L2165.4-67.9z"/>
		</g>
	</g>
</g>
<g transform="matrix( 1, 0, 0, 1, 313.95,1045.25) ">
	<g>
		<g id="Layer0_4_FILL_00000167372701031410840340000000967524238624171169_">
			<path class="st20" d="M2195.7,104.6l-1.2,7.7l36.4,3.5l-4-14.8L2195.7,104.6z"/>
			<path class="st21" d="M2237.1,138.5l-6.2-22.7l-36.4-3.5l-3.9,26.2H2237.1z"/>
			<path class="st22" d="M2259.2,97.4l-22.8-53l-61.9,13.1l-11.4,50.7l32.6-3.6l31.2-3.6L2259.2,97.4 M2165.4,42.8l12.7-0.8
				l55.9-3.4l13.5-0.8l-14.3-51.5L2184.9-25L2165.4,42.8 M2229.7-26.5l11.1,1.6l-44.2-96.1l-18.9,86.7l9.6,1.4L2229.7-26.5z"/>
			<path class="st23" d="M2178.1,42.1l-3.5,15.5l61.9-13.1l-2.5-5.8L2178.1,42.1 M2233.2-13.6l-3.6-12.9l-42.5-6.4l-2.2,7.9
				L2233.2-13.6z"/>
		</g>
	</g>
</g>
<g transform="matrix( 1, 0, 0, 1, 313.95,1045.25) ">
	<g>
		<g id="Layer0_4_FILL_00000129165730435213350860000006790650007515189899_">
			<path class="st20" d="M2053.6,117.9l-1.1,7.7l36.4,3.5l-4-14.8L2053.6,117.9z"/>
			<path class="st21" d="M2095,151.8l-6.2-22.7l-36.4-3.5l-3.9,26.2H2095z"/>
			<path class="st22" d="M2117.1,110.7l-22.8-53l-61.9,13.1l-11.4,50.8l32.5-3.7l31.2-3.6L2117.1,110.7 M2023.3,56.1l12.7-0.8
				l56-3.4l13.5-0.8l-14.3-51.5l-48.3-11.4L2023.3,56.1 M2087.6-13.2l11.1,1.6l-44.2-96.1l-19,86.6l9.6,1.4L2087.6-13.2z"/>
			<path class="st23" d="M2036,55.4l-3.5,15.5l61.9-13.1l-2.4-5.8L2036,55.4 M2091.1-0.3l-3.6-12.9l-42.5-6.4l-2.2,7.9L2091.1-0.3z"
				/>
		</g>
	</g>
</g>
<g transform="matrix( 1, 0, 0, 1, 313.95,1045.25) ">
	<g>
		<g id="Layer0_4_FILL_00000080919353953183731850000013593834581785698212_">
			<path class="st20" d="M2153.8,172.2l-1.1,7.7l36.4,3.5l-4-14.8L2153.8,172.2z"/>
			<path class="st21" d="M2195.3,206.1l-6.2-22.7l-36.4-3.5l-3.9,26.2H2195.3z"/>
			<path class="st22" d="M2217.4,165l-22.8-53l-61.9,13.1l-11.5,50.7l32.6-3.6l31.2-3.6L2217.4,165 M2123.5,110.4l12.7-0.8l55.9-3.4
				l13.5-0.8L2191.4,54l-48.3-11.3L2123.5,110.4 M2187.8,41.1l11.1,1.6l-44.2-96.1l-18.9,86.7l9.6,1.4L2187.8,41.1z"/>
			<path class="st23" d="M2136.2,109.7l-3.5,15.5l61.9-13.1l-2.4-5.8L2136.2,109.7 M2191.4,54l-3.6-12.9l-42.5-6.4l-2.2,8L2191.4,54
				z"/>
		</g>
	</g>
</g>
<g transform="matrix( 1, 0, 0, 1, 313.95,1045.25) ">
	<g>
		<g id="Layer0_4_FILL_00000086650064573049140110000009943387657437951143_">
			<path class="st20" d="M1903.9,42.9l-1.2,7.7l36.4,3.5l-4-14.8L1903.9,42.9z"/>
			<path class="st21" d="M1945.3,76.8l-6.2-22.7l-36.4-3.5l-3.9,26.2H1945.3z"/>
			<path class="st22" d="M1967.4,35.7l-22.8-53l-61.9,13.1l-11.4,50.8l32.5-3.6l31.2-3.6L1967.4,35.7 M1873.6-18.9l12.7-0.8
				l55.9-3.4l13.5-0.8l-14.3-51.5l-48.3-11.3L1873.6-18.9 M1937.9-88.2l11.1,1.7l-44.2-96.1L1885.8-96l9.6,1.4L1937.9-88.2z"/>
			<path class="st23" d="M1886.3-19.6l-3.5,15.4l61.9-13.1l-2.5-5.8L1886.3-19.6 M1941.4-75.3l-3.6-12.9l-42.5-6.4l-2.2,8
				L1941.4-75.3z"/>
		</g>
	</g>
</g>
<g transform="matrix( 1, 0, 0, 1, 313.95,1045.25) ">
	<g>
		<g id="Layer0_4_FILL_00000145025603349827897620000007302982069247825550_">
			<path class="st20" d="M1515.2-16.4l-1.2,7.7l36.4,3.5l-4-14.8L1515.2-16.4z"/>
			<path class="st21" d="M1556.6,17.5l-6.2-22.7L1514-8.7l-3.9,26.2H1556.6z"/>
			<path class="st22" d="M1578.7-23.6L1556-76.5l-61.9,13l-11.5,50.8l32.6-3.6l31.2-3.6L1578.7-23.6 M1484.9-78.2l12.7-0.8l55.9-3.4
				l13.5-0.8l-14.3-51.5l-48.3-11.4L1484.9-78.2 M1549.2-147.5l11,1.7L1516-242l-18.9,86.7l9.6,1.4L1549.2-147.5z"/>
			<path class="st23" d="M1497.6-78.9l-3.5,15.5l61.9-13l-2.4-5.8L1497.6-78.9 M1552.7-134.6l-3.5-12.9l-42.5-6.4l-2.2,7.9
				L1552.7-134.6z"/>
		</g>
	</g>
</g>
<g transform="matrix( 1, 0, 0, 1, 313.95,1045.25) ">
	<g>
		<g id="Layer0_4_FILL_00000098927902506125282630000004913202780194571413_">
			<path class="st20" d="M119.5,75.9l-1.2,7.7l36.4,3.5l-4-14.8L119.5,75.9z"/>
			<path class="st21" d="M161,109.8l-6.2-22.7l-36.4-3.5l-3.9,26.2H161z"/>
			<path class="st22" d="M183.1,68.7l-22.8-53l-61.9,13L87,79.6l32.6-3.7l31.2-3.6L183.1,68.7 M89.2,14.1l12.7-0.8l56-3.4l13.5-0.8
				l-14.3-51.5l-48.3-11.3L89.2,14.1 M153.5-55.2l11.1,1.6l-44.2-96.1L101.4-63l9.6,1.4L153.5-55.2z"/>
			<path class="st23" d="M101.9,13.4l-3.5,15.4l61.9-13l-2.4-5.8L101.9,13.4 M157.1-42.3l-3.6-12.9L111-61.6l-2.2,8L157.1-42.3z"/>
		</g>
	</g>
</g>
</svg>
